HIERARCHY
ROOT Hips
{
	OFFSET 0.000000 0.000000 0.000000
	CHANNELS 6 Xposition Yposition Zposition Zrotation Yrotation Xrotation 
	JOINT LHipJoint
	{
		OFFSET 0.000000 0.000000 0.000000
		CHANNELS 3 Zrotation Yrotation Xrotation
		JOINT LeftUpLeg
		{
			OFFSET 1.363060 -1.794630 0.839290
			CHANNELS 3 Zrotation Yrotation Xrotation
			JOINT LeftLeg
			{
				OFFSET 2.448110 -6.726130 0.000000
				CHANNELS 3 Zrotation Yrotation Xrotation
				JOINT LeftFoot
				{
					OFFSET 2.562200 -7.039590 0.000000
					CHANNELS 3 Zrotation Yrotation Xrotation
					JOINT LeftToeBase
					{
						OFFSET 0.157640 -0.433110 2.322550
						CHANNELS 3 Zrotation Yrotation Xrotation
						End Site
						{
							OFFSET 0.000000 0.000000 0.000000
						}
					}
				}
			}
		}
	}
	JOINT RHipJoint
	{
		OFFSET 0.000000 0.000000 0.000000
		CHANNELS 3 Zrotation Yrotation Xrotation
		JOINT RightUpLeg
		{
			OFFSET -1.305520 -1.794630 0.839290
			CHANNELS 3 Zrotation Yrotation Xrotation
			JOINT RightLeg
			{
				OFFSET -2.542530 -6.985550 0.000000
				CHANNELS 3 Zrotation Yrotation Xrotation
				JOINT RightFoot
				{
					OFFSET -2.568260 -7.056230 0.000000
					CHANNELS 3 Zrotation Yrotation Xrotation
					JOINT RightToeBase
					{
						OFFSET -0.164730 -0.452590 2.363150
						CHANNELS 3 Zrotation Yrotation Xrotation
						End Site
						{
							OFFSET 0.000000 0.000000 0.000000
						}
					}
				}
			}
		}
	}
	JOINT LowerBack
	{
		OFFSET 0.000000 0.000000 0.000000
		CHANNELS 3 Zrotation Yrotation Xrotation
		JOINT Spine
		{
			OFFSET 0.028270 2.035590 -0.193380
			CHANNELS 3 Zrotation Yrotation Xrotation
			JOINT Spine1
			{
				OFFSET 0.056720 2.048850 -0.042750
				CHANNELS 3 Zrotation Yrotation Xrotation
				JOINT Neck
				{
					OFFSET 0.000000 0.000000 0.000000
					CHANNELS 3 Zrotation Yrotation Xrotation
					JOINT Neck1
					{
						OFFSET -0.054170 1.746240 0.172020
						CHANNELS 3 Zrotation Yrotation Xrotation
						JOINT Head
						{
							OFFSET 0.104070 1.761360 -0.123970
							CHANNELS 3 Zrotation Yrotation Xrotation
							End Site
							{
								OFFSET 0.000000 0.000000 0.000000
							}
						}
					}
				}
				JOINT LeftShoulder
				{
					OFFSET 0.000000 0.000000 0.000000
					CHANNELS 3 Zrotation Yrotation Xrotation
					JOINT LeftArm
					{
						OFFSET 3.362410 1.200890 -0.311210
						CHANNELS 3 Zrotation Yrotation Xrotation
						JOINT LeftForeArm
						{
							OFFSET 4.983000 -0.000000 -0.000000
							CHANNELS 3 Zrotation Yrotation Xrotation
							JOINT LeftHand
							{
								OFFSET 3.483560 -0.000000 -0.000000
								CHANNELS 3 Zrotation Yrotation Xrotation
								JOINT LeftFingerBase
								{
									OFFSET 0.000000 0.000000 0.000000
									CHANNELS 3 Zrotation Yrotation Xrotation
									JOINT LeftHandIndex1
									{
										OFFSET 0.715260 -0.000000 -0.000000
										CHANNELS 3 Zrotation Yrotation Xrotation
										End Site
										{
											OFFSET 0.000000 0.000000 0.000000
										}
									}
								}
								JOINT LThumb
								{
									OFFSET 0.000000 0.000000 0.000000
									CHANNELS 3 Zrotation Yrotation Xrotation
									End Site
									{
										OFFSET 0.000000 0.000000 0.000000
									}
								}
							}
						}
					}
				}
				JOINT RightShoulder
				{
					OFFSET 0.000000 0.000000 0.000000
					CHANNELS 3 Zrotation Yrotation Xrotation
					JOINT RightArm
					{
						OFFSET -3.136600 1.374050 -0.404650
						CHANNELS 3 Zrotation Yrotation Xrotation
						JOINT RightForeArm
						{
							OFFSET -5.241900 -0.000000 -0.000000
							CHANNELS 3 Zrotation Yrotation Xrotation
							JOINT RightHand
							{
								OFFSET -3.444170 -0.000000 -0.000000
								CHANNELS 3 Zrotation Yrotation Xrotation
								JOINT RightFingerBase
								{
									OFFSET 0.000000 0.000000 0.000000
									CHANNELS 3 Zrotation Yrotation Xrotation
									JOINT RightHandIndex1
									{
										OFFSET -0.622530 -0.000000 -0.000000
										CHANNELS 3 Zrotation Yrotation Xrotation
										End Site
										{
											OFFSET 0.000000 0.000000 0.000000
										}
									}
								}
								JOINT RThumb
								{
									OFFSET 0.000000 0.000000 0.000000
									CHANNELS 3 Zrotation Yrotation Xrotation
									End Site
									{
										OFFSET 0.000000 0.000000 0.000000
									}
								}
							}
						}
					}
				}
			}
		}
	}
}
MOTION
Frames: 10
Frame Time: 0.008333
-21.652433 16.898888 -0.211239 33.377717 85.000906 47.822475 -8.899721 1.120393 3.076420 -18.565100 3.183017 -46.299652 -3.016382 0.986477 31.788669 2.008532 6.530806 -15.701136 -1.029200 0.000001 -28.090499 10.227672 -5.259604 1.280444 2.599353 -8.698379 9.184564 1.560701 -0.762858 7.378473 0.397752 4.697413 14.153166 1.386100 0.000000 -81.016500 -5.153925 -0.105545 -6.406284 -1.431936 0.037537 -3.608914 -4.862763 -0.128775 2.823014 10.175198 -12.475126 -12.529872 -1.474364 -0.051929 -1.292983 0.000000 0.000000 0.000000 -2.993075 24.012104 2.036916 -75.450310 31.336768 4.048421 -4.158774 -22.646791 -0.021530 -5.829620 4.762340 -0.246698 -0.080854 -0.140515 -0.000000 0.000000 0.000000 0.000000 0.000000 0.000000 0.000000 10.154778 -7.031783 1.460482 51.572734 12.129559 -1.914405 3.415359 31.111293 0.018808 1.939596 5.632191 0.092632 0.123569 -0.143213 -0.000000 0.000000 0.000000 0.000000 0.000000 0.000000 0.000000 
-21.446810 16.921523 -0.219928 30.131994 84.756024 44.323766 -9.025486 1.105960 3.120521 -17.930761 2.933418 -44.819688 -2.940706 0.889678 31.443706 2.096266 6.915650 -16.291946 -1.179200 -0.000000 -27.635099 10.211802 -5.313889 1.227752 2.199748 -8.601360 8.765774 1.385287 -1.030404 9.429365 0.392280 5.872711 16.880344 2.110400 -0.000000 -83.610400 -5.284495 0.010165 -6.422640 -1.467003 0.163506 -3.609211 -4.870795 -0.002318 2.829746 10.224415 -12.479204 -12.514601 -1.448948 -0.050112 -1.288048 0.000000 0.000000 0.000000 -2.963433 24.177597 2.014160 -75.351254 31.375797 3.338023 -4.221628 -22.116873 -0.022331 -5.937935 4.922491 -0.259510 -0.083436 -0.141234 -0.000000 0.000000 0.000000 0.000000 0.000000 0.000000 0.000000 10.095356 -6.977777 1.463187 51.460244 11.596139 -1.615479 3.440458 31.030226 0.019054 2.200321 5.559009 0.104431 0.122593 -0.139372 -0.000000 0.000000 0.000000 0.000000 0.000000 0.000000 0.000000 
-21.240278 16.941386 -0.229821 26.822682 84.476985 40.742061 -9.155468 1.108922 3.141885 -17.346128 2.784044 -43.341583 -2.868944 0.807801 31.146873 2.182646 7.308150 -16.884959 -1.338700 -0.000000 -27.007900 10.202957 -5.341316 1.176489 1.805252 -8.528589 8.217304 1.186617 -1.280095 11.695733 0.353598 7.199329 19.713138 3.020200 0.000000 -85.541700 -5.382006 0.124898 -6.415101 -1.496704 0.286075 -3.606115 -4.885307 0.121411 2.833913 10.281741 -12.466437 -12.500069 -1.430541 -0.048848 -1.283645 0.000000 0.000000 0.000000 -2.934584 24.333942 1.993028 -75.278574 31.338866 2.587587 -4.278356 -21.564014 -0.022891 -5.986810 5.046497 -0.267918 -0.086060 -0.141403 -0.000000 0.000000 0.000000 0.000000 0.000000 0.000000 0.000000 10.065416 -6.904228 1.466161 51.378682 11.047514 -1.349977 3.466678 30.931844 0.019232 2.453178 5.479084 0.115326 0.121645 -0.135476 -0.000000 0.000000 0.000000 0.000000 0.000000 0.000000 0.000000 
-21.033906 16.957960 -0.240690 23.654465 84.190602 37.288597 -9.281778 1.128645 3.145489 -16.814855 2.714979 -41.898982 -2.800932 0.742038 30.918260 2.263000 7.689721 -17.453118 -1.500300 0.000000 -26.230600 10.213460 -5.338382 1.119889 1.414639 -8.545059 7.501317 0.967398 -1.504084 14.214820 0.274599 8.613170 22.593934 4.096800 0.000000 -86.642900 -5.444345 0.230201 -6.380887 -1.520056 0.396705 -3.599672 -4.906035 0.233908 2.833035 10.347481 -12.449224 -12.486015 -1.419375 -0.048164 -1.279639 0.000000 0.000000 0.000000 -2.910705 24.452890 1.973520 -75.237447 31.243883 1.781979 -4.328777 -21.013307 -0.023234 -5.984283 5.143642 -0.272721 -0.088669 -0.141039 -0.000000 0.000000 0.000000 0.000000 0.000000 0.000000 0.000000 10.069293 -6.830225 1.470405 51.322774 10.500801 -1.101075 3.493826 30.811543 0.019354 2.680060 5.406234 0.124724 0.120919 -0.131607 -0.000000 0.000000 0.000000 0.000000 0.000000 0.000000 0.000000 
-20.828039 16.970998 -0.251850 20.787587 83.928696 34.119148 -9.399224 1.162770 3.125271 -16.350429 2.742418 -40.506058 -2.740088 0.692633 30.766833 2.327775 8.016301 -17.971865 -1.652800 -0.000000 -25.349500 10.246688 -5.304239 1.054399 1.045147 -8.666215 6.654503 0.735706 -1.692964 16.924869 0.150180 9.929183 25.436043 5.236700 -0.000000 -86.854800 -5.477467 0.315326 -6.308601 -1.537588 0.485396 -3.586909 -4.933658 0.325358 2.829476 10.425285 -12.422687 -12.474526 -1.417048 -0.048141 -1.276789 0.000000 0.000000 0.000000 -2.870091 24.537928 1.959307 -75.227339 31.066610 0.963593 -4.372410 -20.450306 -0.023364 -5.934242 5.215430 -0.273923 -0.091248 -0.140137 -0.000000 0.000000 0.000000 0.000000 0.000000 0.000000 0.000000 10.117184 -6.754432 1.473920 51.296288 9.948963 -0.901515 3.520564 30.683335 0.019420 2.885341 5.337717 0.133017 0.120291 -0.127807 -0.000000 0.000000 0.000000 0.000000 0.000000 0.000000 0.000000 
-20.623689 16.980361 -0.262791 18.349810 83.723643 31.365532 -9.504944 1.207630 3.084685 -15.956932 2.851099 -39.182322 -2.686654 0.658697 30.704472 2.372803 8.267572 -18.423435 -1.787700 0.000000 -24.401100 10.304736 -5.240315 0.973060 0.697839 -8.933367 5.671986 0.502077 -1.845269 19.820668 -0.016670 10.971587 28.141689 6.303900 -0.000000 -86.080500 -5.491778 0.370346 -6.195148 -1.550606 0.543224 -3.567127 -4.967794 0.386780 2.823015 10.516644 -12.395165 -12.466232 -1.423948 -0.048796 -1.275261 0.000000 0.000000 0.000000 -2.807221 24.573535 1.951189 -75.245333 30.809458 0.144898 -4.409551 -19.886431 -0.023333 -5.847553 5.273019 -0.272522 -0.093768 -0.138738 -0.000000 0.000000 0.000000 0.000000 0.000000 0.000000 0.000000 10.214916 -6.691115 1.476373 51.300657 9.399303 -0.754040 3.546635 30.544467 0.019443 3.060987 5.282375 0.139810 0.119828 -0.124137 -0.000000 0.000000 0.000000 0.000000 0.000000 0.000000 0.000000 
-20.420991 16.986086 -0.273042 16.407946 83.601395 29.097451 -9.598917 1.259754 3.027232 -15.634964 3.027879 -37.939051 -2.640724 0.638789 30.735277 2.395321 8.428300 -18.796549 -1.897700 -0.000001 -23.423801 10.384102 -5.149767 0.869275 0.375255 -9.369935 4.560939 0.277373 -1.964684 22.881712 -0.218889 11.528631 30.597708 7.110100 0.000000 -84.278200 -5.499666 0.387954 -6.038679 -1.561054 0.564021 -3.539931 -5.008235 0.411899 2.813106 10.622238 -12.371987 -12.461233 -1.440448 -0.050154 -1.275074 0.000000 0.000000 0.000000 -2.716822 24.546806 1.949646 -75.285564 30.474860 -0.656842 -4.440774 -19.332871 -0.023195 -5.737582 5.327453 -0.269820 -0.096201 -0.136897 -0.000000 0.000000 0.000000 0.000000 0.000000 0.000000 0.000000 10.366179 -6.649701 1.477473 51.341187 8.853987 -0.670215 3.571991 30.391752 0.019439 3.203718 5.245950 0.145502 0.119552 -0.120652 -0.000000 0.000000 0.000000 0.000000 0.000000 0.000000 0.000000 
-20.220432 16.988346 -0.282202 15.010962 83.579508 27.365035 -9.681821 1.316375 2.956630 -15.382858 3.257498 -36.775066 -2.601961 0.630599 30.853799 2.394827 8.492940 -19.087445 -1.978700 -0.000000 -22.452700 10.479768 -5.036758 0.735967 0.074343 -9.990795 3.334291 0.069946 -2.059862 26.080152 -0.448114 11.399520 32.685635 7.454300 0.000000 -81.487600 -5.513893 0.363500 -5.837347 -1.571182 0.544301 -3.504689 -5.054559 0.397167 2.800320 10.742221 -12.357699 -12.460073 -1.466481 -0.052191 -1.276384 0.000000 0.000000 0.000000 -2.593242 24.454047 1.954831 -75.338412 30.058822 -1.413694 -4.466634 -18.796382 -0.023006 -5.617394 5.389075 -0.266817 -0.098515 -0.134670 -0.000000 0.000000 0.000000 0.000000 0.000000 0.000000 0.000000 10.572522 -6.637268 1.476512 51.425015 8.315056 -0.663984 3.596635 30.220298 0.019426 3.312525 5.231990 0.150194 0.119456 -0.117401 -0.000000 0.000000 0.000000 0.000000 0.000000 0.000000 0.000000 
-20.022053 16.987480 -0.289910 14.220657 83.667646 26.227278 -9.753602 1.375055 2.875923 -15.197884 3.520688 -35.671771 -2.569362 0.630601 31.042628 2.373330 8.468129 -19.298856 -2.030500 0.000000 -21.520200 10.587366 -4.905799 0.565591 -0.216288 -10.803507 2.017284 -0.114908 -2.142466 29.371740 -0.696752 10.440687 34.280466 7.173501 0.000000 -77.875300 -5.547160 0.294500 -5.587487 -1.583375 0.482765 -3.460072 -5.105869 0.341318 2.786570 10.876619 -12.360788 -12.464607 -1.501091 -0.054782 -1.279753 0.000000 0.000000 0.000000 -2.430466 24.298954 1.966455 -75.393518 29.551784 -2.099607 -4.488089 -18.278690 -0.022818 -5.500276 5.466545 -0.264612 -0.100704 -0.132093 -0.000000 0.000000 0.000000 0.000000 0.000000 0.000000 0.000000 10.833487 -6.664170 1.472652 51.560017 7.792594 -0.743455 3.620625 30.019325 0.019412 3.385707 5.242264 0.153786 0.119539 -0.114419 -0.000000 0.000000 0.000000 0.000000 0.000000 0.000000 0.000000 
-19.826115 16.983950 -0.296534 13.864164 83.851794 25.527675 -9.818672 1.435655 2.794362 -15.053103 3.803891 -34.645548 -2.540947 0.637986 31.294114 2.335020 8.366916 -19.443087 -2.055400 -0.000000 -20.650900 10.695370 -4.759450 0.364705 -0.463982 -11.755614 0.598332 -0.279300 -2.223497 32.739019 -0.960214 8.552478 35.246469 6.160200 0.000000 -73.587600 -5.583540 0.190242 -5.306742 -1.595227 0.386887 -3.410945 -5.162719 0.251442 2.765985 11.015929 -12.368520 -12.468420 -1.544550 -0.058099 -1.283099 0.000000 0.000000 0.000000 -2.249304 24.066620 1.981832 -75.435104 28.984440 -2.694700 -4.504812 -17.818377 -0.022682 -5.400813 5.567451 -0.264208 -0.102653 -0.129279 -0.000000 0.000000 0.000000 0.000000 0.000000 0.000000 0.000000 11.132499 -6.712798 1.467006 51.759605 7.258749 -0.942174 3.644892 29.792470 0.019419 3.429631 5.276280 0.156677 0.119768 -0.111797 -0.000000 0.000000 0.000000 0.000000 0.000000 0.000000 0.000000 
